<svg width="23" height="23" viewBox="0 0 23 23" fill="none" xmlns="http://www.w3.org/2000/svg">
<path d="M13.6001 8.66495V11.7099H16.3301C16.5401 11.7099 16.6451 11.92 16.6451 12.13L16.2251 14.1249C16.2251 14.2299 16.0151 14.3349 15.9101 14.3349H13.6001V21.9999H10.4501V14.4399H8.6651C8.4551 14.4399 8.3501 14.3349 8.3501 14.1249V12.13C8.3501 11.92 8.4551 11.815 8.6651 11.815H10.4501V8.34995C10.4501 6.56495 11.8151 5.19995 13.6001 5.19995H16.4351C16.6451 5.19995 16.7501 5.30495 16.7501 5.51495V8.03495C16.7501 8.24495 16.6451 8.34995 16.4351 8.34995H13.9151C13.7051 8.34995 13.6001 8.45495 13.6001 8.66495Z" stroke="white" stroke-width="1.5" stroke-miterlimit="10" stroke-linecap="round"/>
<path d="M14.65 22H8.35C3.1 22 1 19.9 1 14.65V8.35C1 3.1 3.1 1 8.35 1H14.65C19.9 1 22 3.1 22 8.35V14.65C22 19.9 19.9 22 14.65 22Z" stroke="white" stroke-width="1.5" stroke-linecap="round" stroke-linejoin="round"/>
</svg>
