<svg width="23" height="23" viewBox="0 0 23 23" fill="none" xmlns="http://www.w3.org/2000/svg">
<path d="M8.35 22H14.65C19.9 22 22 19.9 22 14.65V8.35C22 3.1 19.9 1 14.65 1H8.35C3.1 1 1 3.1 1 8.35V14.65C1 19.9 3.1 22 8.35 22Z" stroke="white" stroke-width="1.5" stroke-linecap="round" stroke-linejoin="round"/>
<path d="M11.5 15.175C13.5296 15.175 15.175 13.5296 15.175 11.5C15.175 9.4703 13.5296 7.82495 11.5 7.82495C9.4703 7.82495 7.82495 9.4703 7.82495 11.5C7.82495 13.5296 9.4703 15.175 11.5 15.175Z" stroke="white" stroke-width="1.5" stroke-linecap="round" stroke-linejoin="round"/>
<path d="M17.4179 6.24998H17.4301" stroke="white" stroke-width="2" stroke-linecap="round" stroke-linejoin="round"/>
</svg>
