<svg width="147" height="147" viewBox="0 0 147 147" fill="none" xmlns="http://www.w3.org/2000/svg">
<path d="M139.354 40.858C133.847 29.7469 125.617 20.2099 115.432 13.1349C105.247 6.05991 93.4374 1.67703 81.1027 0.394263C68.768 -0.8885 56.3092 0.970568 44.8863 5.79839C33.4634 10.6262 23.4478 18.2658 15.7718 28.006L27.4897 37.2406C33.6076 29.4775 41.5902 23.3886 50.6945 19.5408C59.7987 15.6929 69.7285 14.2112 79.5595 15.2336C89.3904 16.256 98.8029 19.7492 106.921 25.3881C115.038 31.0269 121.597 38.6281 125.987 47.4839L139.354 40.858Z" fill="#0057FF"/>
<path d="M66.1151 146.628C80.5785 148.089 95.1502 145.228 107.987 138.407C120.825 131.586 131.351 121.111 138.235 108.308C145.12 95.5042 148.053 80.9468 146.664 66.4764C145.275 52.006 139.626 38.2725 130.431 27.0125L118.875 36.4488C126.203 45.4231 130.705 56.3689 131.813 67.9021C132.92 79.4352 130.582 91.0377 125.095 101.242C119.608 111.447 111.219 119.795 100.987 125.232C90.7555 130.668 79.1417 132.948 67.6142 131.784L66.1151 146.628Z" fill="#0B1F89"/>
<path d="M6.4992 103.718C12.7401 117.556 23.1124 129.122 36.1912 136.827C49.27 144.532 64.4137 147.999 79.5421 146.751L78.3157 131.882C66.2581 132.877 54.1883 130.114 43.7643 123.973C33.3403 117.831 25.0734 108.613 20.0993 97.5844L6.4992 103.718Z" fill="#040941"/>
<path d="M60.1224 1.22767C47.0182 3.65326 34.82 9.59608 24.833 18.4203C14.8461 27.2444 7.44629 38.6179 3.42533 51.3237C-0.595634 64.0294 -1.08641 77.5894 2.00553 90.5526C5.09746 103.516 11.6557 115.394 20.9786 124.917L31.6397 114.481C24.2092 106.89 18.9821 97.423 16.5178 87.0912C14.0535 76.7593 14.4446 65.9518 17.6494 55.8251C20.8542 45.6984 26.7519 36.6336 34.7117 29.6006C42.6714 22.5676 52.3936 17.8311 62.8379 15.8978L60.1224 1.22767Z" fill="#838FFF"/>
</svg>
