<svg width="173" height="173" viewBox="0 0 173 173" fill="none" xmlns="http://www.w3.org/2000/svg">
<path d="M164.002 48.0846C157.806 35.585 148.679 24.7693 137.399 16.5602C126.119 8.35117 113.02 2.99223 99.2211 0.940533L96.639 18.3078C107.637 19.943 118.077 24.2142 127.067 30.7569C136.057 37.2997 143.332 45.9199 148.27 55.8824L164.002 48.0846Z" fill="#0057FF"/>
<path d="M93.5167 172.715C107.65 171.565 121.283 166.958 133.217 159.3C145.151 151.641 155.019 141.167 161.953 128.798C168.886 116.43 172.673 102.546 172.98 88.3696C173.286 74.1933 170.103 60.159 163.71 47.5022L148.038 55.4181C153.133 65.5058 155.67 76.6914 155.426 87.9901C155.181 99.2889 152.163 110.354 146.637 120.212C141.111 130.07 133.245 138.419 123.734 144.522C114.223 150.626 103.357 154.298 92.0924 155.215L93.5167 172.715Z" fill="#E684FF"/>
<path d="M7.64872 122.063C13.6841 135.445 23.0258 147.07 34.7944 155.845C46.5629 164.62 60.3711 170.256 74.9188 172.221C89.4665 174.187 104.275 172.417 117.95 167.08C131.625 161.743 143.717 153.013 153.087 141.712L139.571 130.505C132.103 139.512 122.466 146.47 111.566 150.724C100.667 154.977 88.8643 156.388 77.2696 154.821C65.6749 153.255 54.6695 148.763 45.2898 141.769C35.9101 134.776 28.4646 125.51 23.6543 114.844L7.64872 122.063Z" fill="white"/>
<path d="M103.671 1.7215C86.9038 -1.67468 69.5056 -0.0224145 53.6771 6.46935C37.8485 12.9611 24.3004 24.0008 14.7461 38.1924C5.19174 52.384 0.0602515 69.09 0.000527094 86.198C-0.0591973 103.306 4.95552 120.048 14.4106 134.305L29.0436 124.602C21.5078 113.238 17.511 99.8946 17.5586 86.2593C17.6062 72.624 21.6961 59.309 29.311 47.9981C36.926 36.6872 47.724 27.8884 60.3396 22.7143C72.9552 17.5403 86.8218 16.2234 100.186 18.9302L103.671 1.7215Z" fill="#838FFF"/>
</svg>
