<svg width="173" height="173" viewBox="0 0 173 173" fill="none" xmlns="http://www.w3.org/2000/svg">
<path d="M164.002 48.0846C157.52 35.0082 147.835 23.7844 135.849 15.4581C123.862 7.13173 109.964 1.97364 95.4474 0.463997C80.931 -1.04565 66.2687 1.14223 52.8254 6.82396C39.3821 12.5057 27.595 21.4965 18.5614 32.9594L32.3519 43.8273C39.5518 34.6912 48.9463 27.5254 59.6608 22.997C70.3753 18.4685 82.0615 16.7248 93.6312 17.928C105.201 19.1312 116.278 23.2423 125.832 29.8785C135.385 36.5147 143.104 45.4603 148.27 55.8824L164.002 48.0846Z" fill="#0057FF"/>
<path d="M77.809 172.562C94.8305 174.281 111.979 170.914 127.087 162.887C142.195 154.859 154.583 142.532 162.685 127.464C170.787 112.396 174.239 95.2639 172.604 78.2341C170.969 61.2043 164.321 45.0417 153.501 31.7903L139.901 42.8955C148.525 53.4571 153.823 66.3389 155.126 79.912C156.429 93.485 153.678 107.14 147.221 119.149C140.763 131.158 130.89 140.983 118.849 147.381C106.808 153.779 93.1395 156.463 79.5731 155.093L77.809 172.562Z" fill="white"/>
<path d="M7.64872 122.063C14.9935 138.348 27.2003 151.959 42.5923 161.028C57.9844 170.096 75.8066 174.176 93.6108 172.707L92.1674 155.208C77.9772 156.379 63.7726 153.127 51.5049 145.9C39.2372 138.672 29.5082 127.824 23.6543 114.844L7.64872 122.063Z" fill="#E684FF"/>
<path d="M70.7563 1.44481C55.3343 4.29941 40.9786 11.2933 29.2253 21.6783C17.472 32.0632 8.76332 45.4483 4.03117 60.4013C-0.700984 75.3544 -1.27856 91.3127 2.36025 106.569C5.99905 121.825 13.7173 135.804 24.6891 147.012L37.2358 134.729C28.4911 125.796 22.3395 114.654 19.4393 102.495C16.5391 90.3358 16.9995 77.6168 20.7711 65.6989C24.5427 53.7811 31.4836 43.113 40.8512 34.8361C50.2188 26.5591 61.6605 20.9849 73.952 18.7097L70.7563 1.44481Z" fill="#838FFF"/>
</svg>
