<svg width="147" height="147" viewBox="0 0 147 147" fill="none" xmlns="http://www.w3.org/2000/svg">
<path d="M139.354 40.858C134.089 30.2369 126.334 21.0468 116.749 14.0714C107.164 7.09608 96.0347 2.54253 84.3093 0.799181L82.1152 15.5563C91.4605 16.9458 100.331 20.575 107.97 26.1345C115.61 31.694 121.791 39.0187 125.987 47.4839L139.354 40.858Z" fill="#0057FF"/>
<path d="M79.4622 146.758C91.4711 145.78 103.056 141.866 113.196 135.359C123.336 128.851 131.721 119.951 137.613 109.441C143.505 98.9315 146.722 87.1345 146.983 75.0887C147.243 63.0429 144.538 51.1178 139.106 40.3631L125.789 47.0894C130.119 55.661 132.275 65.1655 132.067 74.7662C131.859 84.3669 129.295 93.7693 124.599 102.146C119.903 110.522 113.22 117.616 105.138 122.802C97.0562 127.989 87.8232 131.109 78.2519 131.888L79.4622 146.758Z" fill="#0B1F89"/>
<path d="M6.4992 103.718C11.6275 115.089 19.5653 124.967 29.5652 132.424C39.565 139.88 51.298 144.668 63.6593 146.338C76.0206 148.008 88.6036 146.505 100.224 141.97C111.844 137.434 122.118 130.017 130.08 120.414L118.595 110.892C112.249 118.545 104.06 124.457 94.7991 128.071C85.5378 131.686 75.509 132.884 65.6568 131.553C55.8046 130.222 46.4533 126.406 38.4833 120.463C30.5132 114.52 24.1867 106.647 20.0993 97.5844L6.4992 103.718Z" fill="#040941"/>
<path d="M88.0907 1.46278C73.8431 -1.42299 59.0597 -0.0190459 45.61 5.49708C32.1603 11.0132 20.6483 20.3937 12.5299 32.4525C4.41148 44.5112 0.0511964 58.7066 0.000447878 73.2434C-0.0503006 87.7803 4.21076 102.006 12.2448 114.121L24.6787 105.875C18.2754 96.2195 14.8793 84.8816 14.9197 73.2955C14.9602 61.7094 18.4354 50.3955 24.9059 40.7845C31.3764 31.1735 40.5516 23.697 51.2712 19.3006C61.9909 14.9042 73.7735 13.7852 85.129 16.0852L88.0907 1.46278Z" fill="#838FFF"/>
</svg>
