<svg width="173" height="173" viewBox="0 0 173 173" fill="none" xmlns="http://www.w3.org/2000/svg">
<path d="M151.796 143.233C166.666 126.119 174.222 103.851 172.839 81.2218C171.455 58.5926 161.243 37.411 144.399 22.2357C127.556 7.06034 105.428 -0.895577 82.7773 0.0801457C60.1268 1.05587 38.7648 10.8852 23.2886 27.4528L36.1195 39.4385C48.4543 26.2339 65.4801 18.3997 83.5329 17.622C101.586 16.8444 119.222 23.1854 132.647 35.2803C146.071 47.3753 154.211 64.2573 155.313 82.2932C156.416 100.329 150.394 118.077 138.542 131.717L151.796 143.233Z" fill="#0057FF"/>
<path d="M93.5167 172.715C104.839 171.794 115.868 168.651 125.976 163.467C136.083 158.283 145.07 151.159 152.425 142.502L139.043 131.134C133.182 138.034 126.018 143.712 117.963 147.844C109.907 151.976 101.116 154.48 92.0924 155.215L93.5167 172.715Z" fill="white"/>
<path d="M7.64872 122.063C14.9935 138.348 27.2003 151.959 42.5923 161.028C57.9844 170.096 75.8066 174.176 93.6108 172.707L92.1674 155.208C77.9772 156.379 63.7726 153.127 51.5049 145.9C39.2372 138.672 29.5082 127.824 23.6543 114.844L7.64872 122.063Z" fill="#E684FF"/>
<path d="M25.3353 25.3353C12.8953 37.7753 4.54419 53.7128 1.39612 71.0216C-1.75195 88.3305 0.452645 106.188 7.71581 122.211L23.7078 114.963C17.9189 102.191 16.1618 87.959 18.6709 74.1635C21.18 60.3681 27.8359 47.6656 37.7508 37.7508L25.3353 25.3353Z" fill="#838FFF"/>
</svg>
