<svg width="147" height="147" viewBox="0 0 147 147" fill="none" xmlns="http://www.w3.org/2000/svg">
<path d="M128.983 121.707C141.618 107.165 148.039 88.2434 146.863 69.0151C145.688 49.7868 137.01 31.7885 122.698 18.8939C108.386 5.99925 89.5831 -0.760982 70.3367 0.0681007C51.0904 0.897183 32.9388 9.2493 19.7886 23.327L30.6912 33.5113C41.1721 22.2912 55.6392 15.6344 70.9788 14.9736C86.3185 14.3128 101.304 19.7009 112.711 29.9781C124.118 40.2553 131.035 54.6002 131.971 69.9254C132.908 85.2507 127.791 100.331 117.721 111.921L128.983 121.707Z" fill="#0057FF"/>
<path d="M79.4622 146.758C89.0825 145.975 98.4544 143.305 107.043 138.9C115.631 134.495 123.268 128.441 129.517 121.085L118.146 111.426C113.166 117.289 107.079 122.114 100.234 125.625C93.3891 129.135 85.9195 131.264 78.2519 131.888L79.4622 146.758Z" fill="#0F259A"/>
<path d="M6.4992 103.718C12.7401 117.556 23.1124 129.122 36.1912 136.827C49.27 144.532 64.4137 147.999 79.5421 146.751L78.3157 131.882C66.2581 132.877 54.1883 130.114 43.7643 123.973C33.3403 117.831 25.0734 108.613 20.0993 97.5844L6.4992 103.718Z" fill="#040941"/>
<path d="M21.5276 21.5277C10.9572 32.0981 3.86125 45.6403 1.1863 60.3479C-1.48865 75.0554 0.384617 90.229 6.55621 103.844L20.1448 97.6849C15.2259 86.8332 13.7329 74.7397 15.8649 63.0175C17.9968 51.2954 23.6524 40.502 32.0772 32.0772L21.5276 21.5277Z" fill="#838FFF"/>
</svg>
