<svg width="1280" height="131" viewBox="0 0 1280 131" fill="none" xmlns="http://www.w3.org/2000/svg">
<path d="M89.4153 4.22679C42.3213 16.8394 34.9189 38.6383 0 60.6875V131H1280V53.178C1257.44 51.7177 1244.6 49.6085 1224.12 43.9996C1202.88 38.1847 1194.91 31.1932 1175.03 23.9742C1145.5 13.248 1130.75 -0.994904 1095.82 0.0548248C1055.93 1.25392 1046.62 21.9912 1016.13 36.7682C986.276 51.2361 980.244 72.8269 941.291 74.8723C904.671 76.7951 892.129 57.7496 858.679 49.006C825.228 40.2624 767.92 21.4328 706.09 23.9742C619.562 27.5306 605.703 98.4371 519.484 92.9508C435.983 87.6376 402.559 3.14736 364.951 7.28624C327.342 11.4251 336.83 44.509 299.347 49.006C261.864 53.503 136.509 -8.38583 89.4153 4.22679Z" fill="url(#paint0_linear_307_233)" fill-opacity="0.5"/>
<defs>
<linearGradient id="paint0_linear_307_233" x1="622.506" y1="55.9045" x2="621.073" y2="179.429" gradientUnits="userSpaceOnUse">
<stop offset="0.109013" stop-color="#0029FF"/>
<stop offset="0.878297" stop-color="#334399" stop-opacity="0"/>
</linearGradient>
</defs>
</svg>
