<svg width="1280" height="147" viewBox="0 0 1280 147" fill="none" xmlns="http://www.w3.org/2000/svg">
<path d="M107.518 49.2438C60.2754 48.9911 0 71.5715 0 71.5715V146.071H1280V71.0707C1246.51 56.1567 1217.74 50.3426 1172 49.2438C1104.01 47.6108 1085.32 92.0486 1017.77 88.0213C983.757 85.9933 971.528 73.0483 937.499 71.0707C877.714 67.5962 855.014 94.1623 796.412 100.792C749.648 106.083 718.871 113.88 673.812 105.901C634.223 98.8905 628.674 74.3376 596 61.5713C565.508 49.6576 552.787 4.39123 514 1.07131C475.289 -2.24212 401.5 49.0715 401.5 49.0715C401.5 49.0715 352.755 78.869 305.04 80.5909C261.801 82.1513 197.522 67.3555 197.522 67.3555C197.522 67.3555 145.661 49.4479 107.518 49.2438Z" fill="url(#paint0_linear_1008_542)" fill-opacity="0.7"/>
<defs>
<linearGradient id="paint0_linear_1008_542" x1="640" y1="42.0713" x2="640" y2="146.071" gradientUnits="userSpaceOnUse">
<stop stop-color="#040941"/>
<stop offset="1" stop-color="#0057FF" stop-opacity="0"/>
</linearGradient>
</defs>
</svg>
