<svg width="1280" height="229" viewBox="0 0 1280 229" fill="none" xmlns="http://www.w3.org/2000/svg">
<path d="M1144 66.8297C1191.24 66.3203 1280 133.188 1280 133.188V228.371H0V133.485C33.4895 103.421 58.7543 69.0447 104.5 66.8297C172.488 63.5377 194.678 109.118 262.227 101C296.243 96.9118 308.971 4.35785 343 0.371219C402.785 -6.63288 422.898 87.6344 481.5 101C528.264 111.665 534.441 75.1557 579.5 59.0716C619.089 44.9399 649.326 119.807 682 94.0713C712.492 70.0549 722.713 92.7138 761.5 86.0213C800.211 79.3418 869.5 126.745 869.5 126.745C869.5 126.745 899.785 156.9 947.5 160.371C990.739 163.517 1055 113.571 1055 113.571C1055 113.571 1105.86 67.241 1144 66.8297Z" fill="url(#paint0_linear_1008_540)" fill-opacity="0.7"/>
<defs>
<linearGradient id="paint0_linear_1008_540" x1="640" y1="8.37085" x2="640" y2="228.371" gradientUnits="userSpaceOnUse">
<stop stop-color="#0057FF"/>
<stop offset="1" stop-color="#0057FF" stop-opacity="0"/>
</linearGradient>
</defs>
</svg>
