<svg width="1280" height="106" viewBox="0 0 1280 106" fill="none" xmlns="http://www.w3.org/2000/svg">
<path d="M46.5017 8.17238C-9.08221 7.91966 -80 34.6432 -80 34.6432V105H1426V29.9992C1386.6 15.0852 1352.75 9.27118 1298.93 8.17238C1218.93 6.53933 1196.95 50.9771 1117.47 46.9499C1077.45 44.9219 1063.06 31.9769 1023.03 29.9992C952.686 26.5247 925.978 53.0908 857.029 59.7209C802.007 65.0116 765.797 72.8081 712.782 64.8293C666.203 57.8191 657.351 42.7656 618.908 29.9992C583.032 18.0855 568.951 4.75849 523.316 1.43857C477.769 -1.87486 409.407 14.674 409.407 14.674C409.407 14.674 335.038 37.7975 278.899 39.5194C228.025 41.0798 152.397 26.284 152.397 26.284C152.397 26.284 91.3789 8.37642 46.5017 8.17238Z" fill="url(#paint0_linear_307_235)" fill-opacity="0.5" stroke="#264787"/>
<defs>
<linearGradient id="paint0_linear_307_235" x1="673" y1="1" x2="673" y2="105" gradientUnits="userSpaceOnUse">
<stop stop-color="#040941"/>
<stop offset="1" stop-color="#0057FF" stop-opacity="0"/>
</linearGradient>
</defs>
</svg>
