<svg width="1280" height="133" viewBox="0 0 1280 133" fill="none" xmlns="http://www.w3.org/2000/svg">
<path d="M1299.5 9.62947C1355.08 9.32541 1426 41.478 1426 41.478V132.305H-79.9987V35.8905C-40.5962 17.9467 -6.74731 10.9515 47.0754 9.62947C127.068 7.66466 149.052 61.1301 228.528 56.2847C268.549 53.8447 282.938 38.2699 322.975 35.8905C393.315 31.7102 420.023 63.6732 488.972 71.6502C543.994 78.0158 580.204 87.3961 633.219 77.7964C679.798 69.362 688.65 51.2504 727.093 35.8905C762.969 21.5565 777.049 5.52203 822.685 1.52766C868.231 -2.4589 936.593 17.4519 936.593 17.4519C936.593 17.4519 1010.96 45.273 1067.1 47.3448C1117.98 49.2222 1193.6 31.4205 1193.6 31.4205C1193.6 31.4205 1254.62 9.87496 1299.5 9.62947Z" fill="url(#paint0_linear_307_234)" fill-opacity="0.5" stroke="#D32FED"/>
<defs>
<linearGradient id="paint0_linear_307_234" x1="673.001" y1="1" x2="673.001" y2="132.305" gradientUnits="userSpaceOnUse">
<stop stop-color="#C25FDB"/>
<stop offset="1" stop-color="#C25FDB" stop-opacity="0"/>
</linearGradient>
</defs>
</svg>
