<svg width="1280" height="132" viewBox="0 0 1280 132" fill="none" xmlns="http://www.w3.org/2000/svg">
<path d="M1172.48 8.70076C1219.72 8.39671 1280 40.5493 1280 40.5493V131.376H0V40.5713C33.4895 22.6275 62.2589 10.0228 108.005 8.70076C175.993 6.73595 194.678 60.2014 262.227 55.356C296.243 52.916 306.471 2.97834 340.5 0.598951C400.285 -3.58139 424.986 62.7445 483.588 70.7215C530.352 77.0871 561.129 86.4674 606.188 76.8677C645.777 68.4334 653.301 50.3217 685.975 34.9618C716.467 20.6278 728.434 4.59332 767.222 0.598951C805.933 -3.38761 864.036 16.5232 864.036 16.5232C864.036 16.5232 923.285 53.2843 971 55.356C1014.24 57.2334 1082.48 30.4918 1082.48 30.4918C1082.48 30.4918 1134.34 8.94625 1172.48 8.70076Z" fill="url(#paint0_linear_1008_541)" fill-opacity="0.7"/>
<defs>
<linearGradient id="paint0_linear_1008_541" x1="640" y1="0.0712937" x2="640" y2="131.376" gradientUnits="userSpaceOnUse">
<stop stop-color="#C25FDB"/>
<stop offset="1" stop-color="#C25FDB" stop-opacity="0"/>
</linearGradient>
</defs>
</svg>
