<svg width="72" height="12" viewBox="0 0 72 12" fill="none" xmlns="http://www.w3.org/2000/svg">
<path d="M11.1162 7.73926C10.958 8.36035 10.7324 8.89062 10.4395 9.33008C10.1465 9.76953 9.78906 10.1299 9.36719 10.4111C8.95117 10.6865 8.47363 10.8887 7.93457 11.0176C7.40137 11.1465 6.80957 11.2109 6.15918 11.2109C5.35059 11.2109 4.62109 11.0996 3.9707 10.877C3.32031 10.6484 2.7666 10.3145 2.30957 9.875C1.85254 9.42969 1.50098 8.88184 1.25488 8.23145C1.01465 7.58105 0.894531 6.83105 0.894531 5.98145C0.894531 5.14941 1.01172 4.41113 1.24609 3.7666C1.48633 3.12207 1.83203 2.58008 2.2832 2.14062C2.73438 1.70117 3.28809 1.37012 3.94434 1.14746C4.60645 0.918945 5.35938 0.804688 6.20312 0.804688C6.87109 0.804688 7.46289 0.87207 7.97852 1.00684C8.49414 1.13574 8.94531 1.33203 9.33203 1.5957C9.72461 1.85352 10.0557 2.18164 10.3252 2.58008C10.6006 2.97266 10.832 3.43262 11.0195 3.95996L7.73242 4.69824C7.69727 4.52246 7.63867 4.35254 7.55664 4.18848C7.47461 4.02441 7.36914 3.88086 7.24023 3.75781C7.11719 3.62891 6.9707 3.52637 6.80078 3.4502C6.63672 3.37402 6.45508 3.33594 6.25586 3.33594C5.70508 3.33594 5.28613 3.56738 4.99902 4.03027C4.71191 4.4873 4.56836 5.13184 4.56836 5.96387C4.56836 6.49121 4.60352 6.93066 4.67383 7.28223C4.75 7.63379 4.85547 7.91211 4.99023 8.11719C5.13086 8.32227 5.30078 8.46875 5.5 8.55664C5.69922 8.63867 5.9248 8.67969 6.17676 8.67969C6.6748 8.67969 7.0498 8.52148 7.30176 8.20508C7.55957 7.88281 7.74414 7.41113 7.85547 6.79004L11.1162 7.73926ZM12.5664 6.0166C12.5664 5.19043 12.6895 4.45508 12.9355 3.81055C13.1875 3.16602 13.5479 2.62109 14.0166 2.17578C14.4854 1.73047 15.0596 1.39063 15.7393 1.15625C16.4189 0.921875 17.1865 0.804688 18.042 0.804688C18.9268 0.804688 19.7119 0.921875 20.3975 1.15625C21.083 1.38477 21.6602 1.71875 22.1289 2.1582C22.5977 2.5918 22.9551 3.12793 23.2012 3.7666C23.4473 4.39941 23.5703 5.12012 23.5703 5.92871C23.5703 6.7666 23.4531 7.51367 23.2188 8.16992C22.9902 8.82617 22.6475 9.37988 22.1904 9.83105C21.7393 10.2822 21.1768 10.625 20.5029 10.8594C19.8291 11.0938 19.0527 11.2109 18.1738 11.2109C17.3301 11.2109 16.5625 11.1084 15.8711 10.9033C15.1797 10.6982 14.5879 10.3818 14.0957 9.9541C13.6094 9.52637 13.2314 8.9873 12.9619 8.33691C12.6982 7.68066 12.5664 6.90723 12.5664 6.0166ZM16.2402 6.0166C16.2402 6.50293 16.2842 6.91602 16.3721 7.25586C16.46 7.58984 16.583 7.8623 16.7412 8.07324C16.8994 8.28418 17.0898 8.43945 17.3125 8.53906C17.5352 8.63281 17.7842 8.67969 18.0596 8.67969C18.3525 8.67969 18.6133 8.63574 18.8418 8.54785C19.0703 8.4541 19.2607 8.30176 19.4131 8.09082C19.5713 7.87402 19.6914 7.58691 19.7734 7.22949C19.8555 6.87207 19.8965 6.42676 19.8965 5.89355C19.8965 5.44824 19.8525 5.06445 19.7646 4.74219C19.6826 4.41992 19.5596 4.15625 19.3955 3.95117C19.2373 3.74023 19.0439 3.58496 18.8154 3.48535C18.5869 3.38574 18.3291 3.33594 18.042 3.33594C17.7783 3.33594 17.5352 3.38574 17.3125 3.48535C17.0957 3.5791 16.9053 3.73438 16.7412 3.95117C16.583 4.16211 16.46 4.4375 16.3721 4.77734C16.2842 5.11719 16.2402 5.53027 16.2402 6.0166ZM25.6621 1.01562H30.2852L31.9111 6.83398L33.5195 1.01562H38.1338V11H35.0576V3.82812L33.0801 11H30.7246L28.7383 3.82812V11H25.6621V1.01562ZM40.7441 1.01562H46.4395C47.6406 1.01562 48.543 1.29395 49.1465 1.85059C49.75 2.40723 50.0518 3.20996 50.0518 4.25879C50.0518 4.78613 49.9668 5.26074 49.7969 5.68262C49.627 6.09863 49.3721 6.45312 49.0322 6.74609C48.6982 7.0332 48.2764 7.25586 47.7666 7.41406C47.2568 7.56641 46.665 7.64258 45.9912 7.64258H44.418V11H40.7441V1.01562ZM44.418 5.35742H45.2002C45.54 5.35742 45.8213 5.27246 46.0439 5.10254C46.2666 4.93262 46.3779 4.68066 46.3779 4.34668C46.3779 4.0127 46.2812 3.75488 46.0879 3.57324C45.9004 3.3916 45.6484 3.30078 45.332 3.30078H44.418V5.35742ZM56.626 9.43555H53.3125L52.8203 11H49.2168L53.084 1.01562H56.916L60.7832 11H57.1006L56.626 9.43555ZM55.9756 7.1416L54.9648 3.86328L53.9541 7.1416H55.9756ZM64.7471 7.4668C64.7764 7.69531 64.8262 7.90918 64.8965 8.1084C64.9727 8.30176 65.0781 8.47168 65.2129 8.61816C65.3477 8.75879 65.5205 8.87012 65.7314 8.95215C65.9424 9.03418 66.1973 9.0752 66.4961 9.0752C66.9414 9.0752 67.2725 8.9873 67.4893 8.81152C67.7061 8.62988 67.8145 8.4248 67.8145 8.19629C67.8145 8.06738 67.7881 7.95605 67.7354 7.8623C67.6885 7.7627 67.5918 7.67188 67.4453 7.58984C67.3047 7.50781 67.1025 7.42871 66.8389 7.35254C66.5811 7.27637 66.2383 7.19434 65.8105 7.10645C65.0781 6.9541 64.4541 6.77539 63.9385 6.57031C63.4229 6.35938 63.001 6.12207 62.6729 5.8584C62.3506 5.58887 62.1162 5.29004 61.9697 4.96191C61.8232 4.63379 61.75 4.26758 61.75 3.86328C61.75 3.44727 61.8408 3.05469 62.0225 2.68555C62.21 2.31641 62.4941 1.99414 62.875 1.71875C63.2617 1.4375 63.751 1.21484 64.3428 1.05078C64.9346 0.886719 65.6377 0.804688 66.4521 0.804688C67.8643 0.804688 68.9395 1.06543 69.6777 1.58691C70.4219 2.1084 70.8643 2.87012 71.0049 3.87207L67.6562 4.04785C67.5801 3.65527 67.4336 3.35645 67.2168 3.15137C67.0059 2.94629 66.6953 2.84375 66.2852 2.84375C66.0625 2.84375 65.8779 2.86133 65.7314 2.89648C65.585 2.93164 65.4678 2.98145 65.3799 3.0459C65.292 3.10449 65.2275 3.1748 65.1865 3.25684C65.1514 3.33887 65.1338 3.42676 65.1338 3.52051C65.1338 3.59082 65.1426 3.6582 65.1602 3.72266C65.1777 3.78125 65.2275 3.83984 65.3096 3.89844C65.3975 3.95117 65.5264 4.00684 65.6963 4.06543C65.8721 4.11816 66.1152 4.17383 66.4258 4.23242C67.873 4.50195 68.9131 4.79199 69.5459 5.10254C70.1787 5.41309 70.6357 5.78809 70.917 6.22754C71.2041 6.66699 71.3477 7.16211 71.3477 7.71289C71.3477 8.22852 71.2393 8.70312 71.0225 9.13672C70.8057 9.56445 70.4893 9.93359 70.0732 10.2441C69.6572 10.5488 69.1475 10.7861 68.5439 10.9561C67.9404 11.126 67.252 11.2109 66.4785 11.2109C64.5977 11.2109 63.2998 10.8564 62.585 10.1475C61.8701 9.43848 61.4629 8.60645 61.3633 7.65137L64.7471 7.4668Z" fill="#0057FF"/>
</svg>
