<svg width="45" height="45" viewBox="0 0 45 45" fill="none" xmlns="http://www.w3.org/2000/svg">
<path d="M45 22.5C45 34.9264 34.9264 45 22.5 45C10.0736 45 0 34.9264 0 22.5C0 10.0736 10.0736 0 22.5 0C34.9264 0 45 10.0736 45 22.5Z" fill="white"/>
<path d="M22.961 21.2119C25.93 21.2119 28.337 18.9259 28.337 16.106C28.337 13.286 25.93 11 22.961 11C19.9919 11 17.585 13.286 17.585 16.106C17.585 18.9259 19.9919 21.2119 22.961 21.2119Z" stroke="#0057FF" stroke-opacity="0.8" stroke-width="1.28" stroke-linecap="round" stroke-linejoin="round"/>
<path d="M31.92 34.8279C31.92 30.1232 27.9042 26.318 22.96 26.318C18.0158 26.318 14 30.1232 14 34.8279" stroke="#0057FF" stroke-opacity="0.8" stroke-width="1.28" stroke-linecap="round" stroke-linejoin="round"/>
</svg>
