<svg width="85" height="85" viewBox="0 0 85 85" fill="none" xmlns="http://www.w3.org/2000/svg">
<g filter="url(#filter0_d_2_24)">
<g filter="url(#filter1_d_2_24)">
<path d="M65 38.5C65 50.9264 54.9264 61 42.5 61C30.0736 61 20 50.9264 20 38.5C20 26.0736 30.0736 16 42.5 16C54.9264 16 65 26.0736 65 38.5Z" fill="white"/>
</g>
<path d="M42.961 37.2119C45.9301 37.2119 48.337 34.9259 48.337 32.106C48.337 29.286 45.9301 27 42.961 27C39.9919 27 37.585 29.286 37.585 32.106C37.585 34.9259 39.9919 37.2119 42.961 37.2119Z" stroke="#0057FF" stroke-opacity="0.8" stroke-width="1.28" stroke-linecap="round" stroke-linejoin="round"/>
<path d="M51.92 50.8279C51.92 46.1231 47.9042 42.318 42.96 42.318C38.0158 42.318 34 46.1231 34 50.8279" stroke="#0057FF" stroke-opacity="0.8" stroke-width="1.28" stroke-linecap="round" stroke-linejoin="round"/>
</g>
<defs>
<filter id="filter0_d_2_24" x="16" y="16" width="53" height="53" filterUnits="userSpaceOnUse" color-interpolation-filters="sRGB">
<feFlood flood-opacity="0" result="BackgroundImageFix"/>
<feColorMatrix in="SourceAlpha" type="matrix" values="0 0 0 0 0 0 0 0 0 0 0 0 0 0 0 0 0 0 127 0" result="hardAlpha"/>
<feOffset dy="4"/>
<feGaussianBlur stdDeviation="2"/>
<feComposite in2="hardAlpha" operator="out"/>
<feColorMatrix type="matrix" values="0 0 0 0 0 0 0 0 0 0 0 0 0 0 0 0 0 0 0.25 0"/>
<feBlend mode="normal" in2="BackgroundImageFix" result="effect1_dropShadow_2_24"/>
<feBlend mode="normal" in="SourceGraphic" in2="effect1_dropShadow_2_24" result="shape"/>
</filter>
<filter id="filter1_d_2_24" x="0" y="0" width="85" height="85" filterUnits="userSpaceOnUse" color-interpolation-filters="sRGB">
<feFlood flood-opacity="0" result="BackgroundImageFix"/>
<feColorMatrix in="SourceAlpha" type="matrix" values="0 0 0 0 0 0 0 0 0 0 0 0 0 0 0 0 0 0 127 0" result="hardAlpha"/>
<feOffset dy="4"/>
<feGaussianBlur stdDeviation="10"/>
<feComposite in2="hardAlpha" operator="out"/>
<feColorMatrix type="matrix" values="0 0 0 0 0 0 0 0 0 0 0 0 0 0 0 0 0 0 0.1 0"/>
<feBlend mode="normal" in2="BackgroundImageFix" result="effect1_dropShadow_2_24"/>
<feBlend mode="normal" in="SourceGraphic" in2="effect1_dropShadow_2_24" result="shape"/>
</filter>
</defs>
</svg>
