<svg width="46" height="45" viewBox="0 0 46 45" fill="none" xmlns="http://www.w3.org/2000/svg">
<rect width="46" height="45" fill="#1E1E1E"/>
<path d="M45.1035 22.5C45.1035 34.9264 35.0299 45 22.6035 45C10.1771 45 0.103516 34.9264 0.103516 22.5C0.103516 10.0736 10.1771 0 22.6035 0C35.0299 0 45.1035 10.0736 45.1035 22.5Z" fill="white"/>
<path d="M23.1035 22.0884C25.8649 22.0884 28.1035 19.6468 28.1035 16.6349C28.1035 13.623 25.8649 11.1814 23.1035 11.1814C20.3421 11.1814 18.1035 13.623 18.1035 16.6349C18.1035 19.6468 20.3421 22.0884 23.1035 22.0884Z" stroke="#0057FF" stroke-width="1.5" stroke-linecap="round" stroke-linejoin="round"/>
<path d="M31.6937 32.9954C31.6937 28.7744 27.8437 25.3605 23.1037 25.3605C18.3637 25.3605 14.5137 28.7744 14.5137 32.9954" stroke="#0057FF" stroke-width="1.5" stroke-linecap="round" stroke-linejoin="round"/>
</svg>
