<svg width="21" height="20" viewBox="0 0 21 20" fill="none" xmlns="http://www.w3.org/2000/svg">
<path d="M16.3883 14.025L16.7133 16.6583C16.7966 17.35 16.055 17.8333 15.4633 17.475L11.9716 15.4C11.5883 15.4 11.2133 15.375 10.8466 15.325C11.4633 14.6 11.83 13.6833 11.83 12.6917C11.83 10.325 9.77995 8.40838 7.24662 8.40838C6.27995 8.40838 5.38829 8.68335 4.64662 9.16669C4.62162 8.95835 4.61328 8.75001 4.61328 8.53335C4.61328 4.74168 7.90495 1.66669 11.9716 1.66669C16.0383 1.66669 19.33 4.74168 19.33 8.53335C19.33 10.7833 18.1716 12.775 16.3883 14.025Z" stroke="#0057FF" stroke-opacity="0.8" stroke-width="1.5" stroke-linecap="round" stroke-linejoin="round"/>
<path d="M11.8307 12.6917C11.8307 13.6833 11.4641 14.6 10.8474 15.325C10.0224 16.325 8.71406 16.9667 7.2474 16.9667L5.0724 18.2583C4.70573 18.4833 4.23906 18.175 4.28906 17.75L4.49739 16.1084C3.38073 15.3334 2.66406 14.0917 2.66406 12.6917C2.66406 11.225 3.4474 9.93336 4.6474 9.1667C5.38907 8.68336 6.28073 8.40839 7.2474 8.40839C9.78073 8.40839 11.8307 10.325 11.8307 12.6917Z" stroke="#0057FF" stroke-opacity="0.8" stroke-width="1.5" stroke-linecap="round" stroke-linejoin="round"/>
</svg>
