<svg width="21" height="20" viewBox="0 0 21 20" fill="none" xmlns="http://www.w3.org/2000/svg">
<path d="M15.4957 14.025L15.8207 16.6583C15.904 17.35 15.1624 17.8333 14.5707 17.475L11.079 15.4C10.6957 15.4 10.3207 15.375 9.95405 15.325C10.5707 14.6 10.9374 13.6833 10.9374 12.6917C10.9374 10.325 8.88737 8.40836 6.35404 8.40836C5.38737 8.40836 4.49571 8.68334 3.75404 9.16667C3.72904 8.95834 3.7207 8.75 3.7207 8.53333C3.7207 4.74166 7.01237 1.66667 11.079 1.66667C15.1457 1.66667 18.4374 4.74166 18.4374 8.53333C18.4374 10.7833 17.279 12.775 15.4957 14.025Z" stroke="#3A3A3A" stroke-width="1.5" stroke-linecap="round" stroke-linejoin="round"/>
<path d="M10.9382 12.6917C10.9382 13.6833 10.5715 14.6 9.95482 15.325C9.12982 16.325 7.82148 16.9667 6.35482 16.9667L4.17982 18.2583C3.81315 18.4833 3.34648 18.175 3.39648 17.75L3.60482 16.1083C2.48815 15.3333 1.77148 14.0917 1.77148 12.6917C1.77148 11.225 2.55482 9.93333 3.75482 9.16667C4.49649 8.68333 5.38815 8.40836 6.35482 8.40836C8.88815 8.40836 10.9382 10.325 10.9382 12.6917Z" stroke="#3A3A3A" stroke-width="1.5" stroke-linecap="round" stroke-linejoin="round"/>
</svg>
