<svg width="21" height="20" viewBox="0 0 21 20" fill="none" xmlns="http://www.w3.org/2000/svg">
<path d="M11.0136 2.42511C8.25523 2.42511 6.01357 4.66678 6.01357 7.42511V9.83344C6.01357 10.3418 5.7969 11.1168 5.53857 11.5501L4.58023 13.1418C3.98857 14.1251 4.3969 15.2168 5.48023 15.5834C9.0719 16.7834 12.9469 16.7834 16.5386 15.5834C17.5469 15.2501 17.9886 14.0584 17.4386 13.1418L16.4802 11.5501C16.2302 11.1168 16.0136 10.3418 16.0136 9.83344V7.42511C16.0136 4.67511 13.7636 2.42511 11.0136 2.42511Z" stroke="#0057FF" stroke-width="1.5" stroke-miterlimit="10" stroke-linecap="round"/>
<path d="M12.5521 2.66664C12.2937 2.59164 12.0271 2.5333 11.7521 2.49997C10.9521 2.39997 10.1854 2.4583 9.46875 2.66664C9.71042 2.04997 10.3104 1.61664 11.0104 1.61664C11.7104 1.61664 12.3104 2.04997 12.5521 2.66664Z" stroke="#0057FF" stroke-width="1.5" stroke-miterlimit="10" stroke-linecap="round" stroke-linejoin="round"/>
<path d="M13.5117 15.8834C13.5117 17.2584 12.3867 18.3834 11.0117 18.3834C10.3284 18.3834 9.69505 18.1 9.24505 17.65C8.79505 17.2 8.51172 16.5667 8.51172 15.8834" stroke="#0057FF" stroke-width="1.5" stroke-miterlimit="10"/>
</svg>
