<svg width="21" height="20" viewBox="0 0 21 20" fill="none" xmlns="http://www.w3.org/2000/svg">
<path d="M10.121 2.42514C7.36266 2.42514 5.12099 4.66681 5.12099 7.42514V9.83347C5.12099 10.3418 4.90432 11.1168 4.64599 11.5501L3.68765 13.1418C3.09599 14.1251 3.50432 15.2168 4.58765 15.5835C8.17932 16.7835 12.0543 16.7835 15.646 15.5835C16.6543 15.2501 17.096 14.0585 16.546 13.1418L15.5877 11.5501C15.3377 11.1168 15.121 10.3418 15.121 9.83347V7.42514C15.121 4.67514 12.871 2.42514 10.121 2.42514Z" stroke="#3A3A3A" stroke-width="1.5" stroke-miterlimit="10" stroke-linecap="round"/>
<path d="M11.6615 2.66665C11.4031 2.59165 11.1365 2.53332 10.8615 2.49999C10.0615 2.39999 9.29479 2.45832 8.57812 2.66665C8.81979 2.04999 9.41979 1.61665 10.1198 1.61665C10.8198 1.61665 11.4198 2.04999 11.6615 2.66665Z" stroke="#3A3A3A" stroke-width="1.5" stroke-miterlimit="10" stroke-linecap="round" stroke-linejoin="round"/>
<path d="M12.6191 15.8834C12.6191 17.2584 11.4941 18.3834 10.1191 18.3834C9.43581 18.3834 8.80247 18.1 8.35247 17.65C7.90247 17.2 7.61914 16.5667 7.61914 15.8834" stroke="#3A3A3A" stroke-width="1.5" stroke-miterlimit="10"/>
</svg>
