<svg width="18" height="15" viewBox="0 0 18 15" fill="none" xmlns="http://www.w3.org/2000/svg">
<path d="M15.6194 4.00714L13.3728 13.0272C13.2128 13.7005 12.6128 14.1671 11.9194 14.1671H3.15944C2.15277 14.1671 1.43278 13.1804 1.73278 12.2138L4.53944 3.2005C4.73277 2.57383 5.31278 2.14044 5.96612 2.14044H14.1661C14.7994 2.14044 15.3261 2.52711 15.5461 3.06045C15.6728 3.34711 15.6994 3.67381 15.6194 4.00714Z" stroke="#0057FF" stroke-width="1.5" stroke-miterlimit="10"/>
<path d="M11.668 14.1672H14.8546C15.7146 14.1672 16.388 13.4405 16.328 12.5805L15.668 3.50049" stroke="#0057FF" stroke-width="1.5" stroke-miterlimit="10" stroke-linecap="round" stroke-linejoin="round"/>
<path d="M7.45312 3.7538L8.14646 0.87384" stroke="#0057FF" stroke-width="1.5" stroke-miterlimit="10" stroke-linecap="round" stroke-linejoin="round"/>
<path d="M11.9219 3.76031L12.5485 0.867004" stroke="#0057FF" stroke-width="1.5" stroke-miterlimit="10" stroke-linecap="round" stroke-linejoin="round"/>
<path d="M6.13281 7.50049H11.4661" stroke="#0057FF" stroke-width="1.5" stroke-miterlimit="10" stroke-linecap="round" stroke-linejoin="round"/>
<path d="M5.46484 10.1672H10.7982" stroke="#0057FF" stroke-width="1.5" stroke-miterlimit="10" stroke-linecap="round" stroke-linejoin="round"/>
</svg>
