<svg width="16" height="15" viewBox="0 0 16 15" fill="none" xmlns="http://www.w3.org/2000/svg">
<path d="M5.33387 14.1672H10.6672C13.3472 14.1672 13.8272 13.0938 13.9672 11.7872L14.4672 6.45382C14.6472 4.82716 14.1805 3.50049 11.3339 3.50049H4.6672C1.82054 3.50049 1.35387 4.82716 1.53387 6.45382L2.03387 11.7872C2.17387 13.0938 2.65387 14.1672 5.33387 14.1672Z" stroke="#0057FF" stroke-width="1.5" stroke-miterlimit="10" stroke-linecap="round" stroke-linejoin="round"/>
<path d="M5.33203 3.50047V2.96713C5.33203 1.78713 5.33203 0.833801 7.46536 0.833801H8.53203C10.6654 0.833801 10.6654 1.78713 10.6654 2.96713V3.50047" stroke="#0057FF" stroke-width="1.5" stroke-miterlimit="10" stroke-linecap="round" stroke-linejoin="round"/>
<path d="M9.33464 8.16715V8.83382C9.33464 8.84049 9.33464 8.84049 9.33464 8.84716C9.33464 9.57382 9.32797 10.1672 8.0013 10.1672C6.6813 10.1672 6.66797 9.58049 6.66797 8.85382V8.16715C6.66797 7.50049 6.66797 7.50049 7.33464 7.50049H8.66797C9.33464 7.50049 9.33464 7.50049 9.33464 8.16715Z" stroke="#0057FF" stroke-width="1.5" stroke-miterlimit="10" stroke-linecap="round" stroke-linejoin="round"/>
<path d="M14.432 6.8338C12.892 7.9538 11.132 8.62047 9.33203 8.84713" stroke="#0057FF" stroke-width="1.5" stroke-miterlimit="10" stroke-linecap="round" stroke-linejoin="round"/>
<path d="M1.74609 7.01379C3.24609 8.04046 4.93943 8.66046 6.66609 8.85379" stroke="#0057FF" stroke-width="1.5" stroke-miterlimit="10" stroke-linecap="round" stroke-linejoin="round"/>
</svg>
