<svg width="17" height="17" viewBox="0 0 17 17" fill="none" xmlns="http://www.w3.org/2000/svg">
<path d="M9.03709 15.1877H3.69193C2.35564 15.1877 1.6875 14.5201 1.6875 13.1848V7.84405C1.6875 6.50885 2.35564 5.84125 3.69193 5.84125H7.03266V13.1848C7.03266 14.5201 7.7008 15.1877 9.03709 15.1877Z" stroke="#0057FF" stroke-width="1.5" stroke-miterlimit="10" stroke-linecap="round" stroke-linejoin="round"/>
<path d="M7.10562 3.1709C7.05217 3.37118 7.03213 3.59149 7.03213 3.8385V5.8413H3.69141V4.5061C3.69141 3.77174 4.29274 3.1709 5.0277 3.1709H7.10562Z" stroke="#0057FF" stroke-width="1.5" stroke-miterlimit="10" stroke-linecap="round" stroke-linejoin="round"/>
<path d="M9.70312 5.84125V9.17925" stroke="#0057FF" stroke-width="1.5" stroke-miterlimit="10" stroke-linecap="round" stroke-linejoin="round"/>
<path d="M12.3789 5.84131V9.17931" stroke="#0057FF" stroke-width="1.5" stroke-miterlimit="10" stroke-linecap="round" stroke-linejoin="round"/>
<path d="M11.7076 11.8497H10.3713C10.0038 11.8497 9.70312 12.1501 9.70312 12.5173V15.1877H12.3757V12.5173C12.3757 12.1501 12.075 11.8497 11.7076 11.8497Z" stroke="#0057FF" stroke-width="1.5" stroke-miterlimit="10" stroke-linecap="round" stroke-linejoin="round"/>
<path d="M4.35938 9.17932V11.8497" stroke="#0057FF" stroke-width="1.5" stroke-miterlimit="10" stroke-linecap="round" stroke-linejoin="round"/>
<path d="M7.35156 13.1256V3.77917C7.35156 2.44397 8.01971 1.77637 9.356 1.77637H13.3649C14.7012 1.77637 15.3693 2.44397 15.3693 3.77917V13.1256C15.3693 14.4608 14.7012 15.1284 13.3649 15.1284H9.356C8.01971 15.1284 7.35156 14.4608 7.35156 13.1256Z" stroke="#0057FF" stroke-width="1.5" stroke-miterlimit="10" stroke-linecap="round" stroke-linejoin="round"/>
</svg>
