<svg width="60" height="60" viewBox="0 0 60 60" fill="none" xmlns="http://www.w3.org/2000/svg">
<path d="M30.0005 55C43.8076 55 55.0005 43.8071 55.0005 30C55.0005 16.1929 43.8076 5 30.0005 5C16.1934 5 5.00049 16.1929 5.00049 30C5.00049 43.8071 16.1934 55 30.0005 55Z" stroke="#3A3A3A" stroke-width="2.7" stroke-linecap="round" stroke-linejoin="round"/>
<path d="M19.9997 7.5H22.4997C17.6247 22.1 17.6247 37.9 22.4997 52.5H19.9997" stroke="#3A3A3A" stroke-width="2.7" stroke-linecap="round" stroke-linejoin="round"/>
<path d="M37.5 7.5C42.375 22.1 42.375 37.9 37.5 52.5" stroke="#3A3A3A" stroke-width="2.7" stroke-linecap="round" stroke-linejoin="round"/>
<path d="M7.5 40V37.5C22.1 42.375 37.9 42.375 52.5 37.5V40" stroke="#3A3A3A" stroke-width="2.7" stroke-linecap="round" stroke-linejoin="round"/>
<path d="M7.5 22.4999C22.1 17.6249 37.9 17.6249 52.5 22.4999" stroke="#3A3A3A" stroke-width="2.7" stroke-linecap="round" stroke-linejoin="round"/>
</svg>
