<svg width="60" height="60" viewBox="0 0 60 60" fill="none" xmlns="http://www.w3.org/2000/svg">
<path d="M5 55H55" stroke="#3A3A3A" stroke-width="2.7" stroke-miterlimit="10" stroke-linecap="round" stroke-linejoin="round"/>
<path d="M7 54.675L7.125 24.5999C7.125 23.0749 7.85 21.625 9.05 20.675L26.55 7.05C28.35 5.65 30.875 5.65 32.7 7.05L50.2 20.65C51.425 21.6 52.125 23.0499 52.125 24.5999V54.675" stroke="#3A3A3A" stroke-width="2.7" stroke-miterlimit="10" stroke-linejoin="round"/>
<path d="M32.5 42.5H27.5C25.425 42.5 23.75 44.175 23.75 46.25V55H36.25V46.25C36.25 44.175 34.575 42.5 32.5 42.5Z" stroke="#3A3A3A" stroke-width="2.7" stroke-miterlimit="10" stroke-linejoin="round"/>
<path d="M23.75 34.375H18.75C17.375 34.375 16.25 33.25 16.25 31.875V28.125C16.25 26.75 17.375 25.625 18.75 25.625H23.75C25.125 25.625 26.25 26.75 26.25 28.125V31.875C26.25 33.25 25.125 34.375 23.75 34.375Z" stroke="#3A3A3A" stroke-width="2.7" stroke-miterlimit="10" stroke-linejoin="round"/>
<path d="M41.25 34.375H36.25C34.875 34.375 33.75 33.25 33.75 31.875V28.125C33.75 26.75 34.875 25.625 36.25 25.625H41.25C42.625 25.625 43.75 26.75 43.75 28.125V31.875C43.75 33.25 42.625 34.375 41.25 34.375Z" stroke="#3A3A3A" stroke-width="2.7" stroke-miterlimit="10" stroke-linejoin="round"/>
<path d="M47.5008 17.5L47.4258 10H36.4258" stroke="#3A3A3A" stroke-width="2.7" stroke-miterlimit="10" stroke-linecap="round" stroke-linejoin="round"/>
</svg>
