<svg width="61" height="60" viewBox="0 0 61 60" fill="none" xmlns="http://www.w3.org/2000/svg">
<path d="M55.1399 26.1001L52.6899 36.5501C50.5899 45.5751 46.4399 49.2251 38.6399 48.4751C37.3899 48.3751 36.0399 48.1501 34.5899 47.8001L30.3899 46.8001C19.9649 44.3251 16.7399 39.1751 19.1899 28.7251L21.6399 18.2501C22.1399 16.1251 22.7399 14.2751 23.4899 12.7501C26.4149 6.70008 31.3899 5.07508 39.7399 7.05008L43.9149 8.02508C54.3899 10.4751 57.5899 15.6501 55.1399 26.1001Z" stroke="#3A3A3A" stroke-width="3" stroke-linecap="round" stroke-linejoin="round"/>
<path d="M38.64 48.4749C37.09 49.5249 35.14 50.3999 32.765 51.1749L28.815 52.4749C18.89 55.6749 13.665 52.9999 10.44 43.0749L7.23999 33.1999C4.03999 23.2749 6.68999 18.0249 16.615 14.8249L20.565 13.5249C21.59 13.1999 22.565 12.9249 23.49 12.7499C22.74 14.2749 22.14 16.1249 21.64 18.2499L19.19 28.7249C16.74 39.1749 19.965 44.3249 30.39 46.7999L34.59 47.7999C36.04 48.1499 37.39 48.3749 38.64 48.4749Z" stroke="#3A3A3A" stroke-width="3" stroke-linecap="round" stroke-linejoin="round"/>
<path d="M32.591 21.3251L44.716 24.4001" stroke="#3A3A3A" stroke-width="3" stroke-linecap="round" stroke-linejoin="round"/>
<path d="M30.1387 31.0001L37.3887 32.8501" stroke="#3A3A3A" stroke-width="3" stroke-linecap="round" stroke-linejoin="round"/>
</svg>
