<svg width="61" height="60" viewBox="0 0 61 60" fill="none" xmlns="http://www.w3.org/2000/svg">
<path d="M38.6401 48.4749C37.0901 49.5249 35.1401 50.3999 32.7651 51.1749L28.8151 52.4749C18.8901 55.6749 13.6651 52.9999 10.4401 43.0749L7.24011 33.1999C4.04011 23.2749 6.69011 18.0249 16.6151 14.8249L20.5651 13.5249C21.5901 13.1999 22.5651 12.9249 23.4901 12.7499C22.7401 14.2749 22.1401 16.1249 21.6401 18.2499L19.1901 28.7249C16.7401 39.1749 19.9651 44.3249 30.3901 46.7999L34.5901 47.7999C36.0401 48.1499 37.3901 48.3749 38.6401 48.4749Z" fill="#0057FF" stroke="white" stroke-width="3" stroke-linecap="round" stroke-linejoin="round"/>
<path d="M55.1398 26.1001L52.6898 36.5501C50.5898 45.5751 46.4398 49.2251 38.6398 48.4751C37.3898 48.3751 36.0398 48.1501 34.5898 47.8001L30.3898 46.8001C19.9648 44.3251 16.7398 39.1751 19.1898 28.7251L21.6398 18.2501C22.1398 16.1251 22.7398 14.2751 23.4898 12.7501C26.4148 6.70008 31.3898 5.07508 39.7398 7.05008L43.9148 8.02508C54.3898 10.4751 57.5898 15.6501 55.1398 26.1001Z" fill="#0057FF" stroke="white" stroke-width="3" stroke-linecap="round" stroke-linejoin="round"/>
<path d="M32.5909 21.3251L44.7159 24.4001" stroke="white" stroke-width="3" stroke-linecap="round" stroke-linejoin="round"/>
<path d="M30.1387 31.0001L37.3887 32.8501" stroke="white" stroke-width="3" stroke-linecap="round" stroke-linejoin="round"/>
</svg>
