<svg width="60" height="60" viewBox="0 0 60 60" fill="none" xmlns="http://www.w3.org/2000/svg">
<path d="M45.0006 17.9C44.8506 17.875 44.6756 17.875 44.5256 17.9C41.0756 17.775 38.3256 14.95 38.3256 11.45C38.3256 7.875 41.2006 5 44.7756 5C48.3506 5 51.2256 7.9 51.2256 11.45C51.2006 14.95 48.4506 17.775 45.0006 17.9Z" stroke="#3A3A3A" stroke-width="3" stroke-linecap="round" stroke-linejoin="round"/>
<path d="M42.429 36.1004C45.854 36.6754 49.629 36.0754 52.279 34.3004C55.804 31.9504 55.804 28.1004 52.279 25.7504C49.604 23.9754 45.7789 23.3754 42.3539 23.9754" stroke="#3A3A3A" stroke-width="3" stroke-linecap="round" stroke-linejoin="round"/>
<path d="M14.9265 17.9C15.0765 17.875 15.2515 17.875 15.4015 17.9C18.8515 17.775 21.6015 14.95 21.6015 11.45C21.6015 7.875 18.7265 5 15.1515 5C11.5765 5 8.70154 7.9 8.70154 11.45C8.72654 14.95 11.4765 17.775 14.9265 17.9Z" stroke="#3A3A3A" stroke-width="3" stroke-linecap="round" stroke-linejoin="round"/>
<path d="M17.5039 36.1001C14.0789 36.6751 10.3039 36.0751 7.65389 34.3001C4.12889 31.9501 4.12889 28.1001 7.65389 25.7501C10.3289 23.9751 14.1539 23.3751 17.5789 23.9751" stroke="#3A3A3A" stroke-width="3" stroke-linecap="round" stroke-linejoin="round"/>
<path d="M29.9958 36.5743C29.8458 36.5493 29.6708 36.5493 29.5208 36.5743C26.0708 36.4493 23.3208 33.6243 23.3208 30.1243C23.3208 26.5493 26.1958 23.6743 29.7708 23.6743C33.3458 23.6743 36.2208 26.5743 36.2208 30.1243C36.1958 33.6243 33.4458 36.4743 29.9958 36.5743Z" stroke="#3A3A3A" stroke-width="3" stroke-linecap="round" stroke-linejoin="round"/>
<path d="M22.7224 44.4494C19.1974 46.7994 19.1974 50.6493 22.7224 52.9993C26.7224 55.6743 33.2724 55.6743 37.2724 52.9993C40.7974 50.6493 40.7974 46.7994 37.2724 44.4494C33.2974 41.7994 26.7224 41.7994 22.7224 44.4494Z" stroke="#3A3A3A" stroke-width="3" stroke-linecap="round" stroke-linejoin="round"/>
</svg>
