<svg width="61" height="60" viewBox="0 0 61 60" fill="none" xmlns="http://www.w3.org/2000/svg">
<path d="M26.1102 6.32497L11.0602 16.15C6.23516 19.3 6.23516 26.35 11.0602 29.5L26.1102 39.325C28.8102 41.1 33.2602 41.1 35.9602 39.325L50.9352 29.5C55.7352 26.35 55.7352 19.325 50.9352 16.175L35.9602 6.34997C33.2602 4.54997 28.8102 4.54997 26.1102 6.32497Z" stroke="#3A3A3A" stroke-width="3" stroke-linecap="round" stroke-linejoin="round"/>
<path d="M15.0592 32.7001L15.0342 44.4251C15.0342 47.6001 17.4842 51.0001 20.4842 52.0001L28.4592 54.6501C29.8342 55.1001 32.1092 55.1001 33.5092 54.6501L41.4842 52.0001C44.4842 51.0001 46.9342 47.6001 46.9342 44.4251V32.8251" stroke="#3A3A3A" stroke-width="3" stroke-linecap="round" stroke-linejoin="round"/>
<path d="M54.4873 37.5V22.5" stroke="#3A3A3A" stroke-width="3" stroke-linecap="round" stroke-linejoin="round"/>
</svg>
